' Copyright (C) 2019 - present Juergen Zimmermann, Hochschule Karlsruhe
'
' This program is free software: you can redistribute it and/or modify
' it under the terms of the GNU General Public License as published by
' the Free Software Foundation, either version 3 of the License, or
' (at your option) any later version.
'
' This program is distributed in the hope that it will be useful,
' but WITHOUT ANY WARRANTY; without even the implied warranty of
' MERCHANTABILITY or FITNESS FOR A PARTICULAR PURPOSE.  See the
' GNU General Public License for more details.
'
' You should have received a copy of the GNU General Public License
' along with this program.  If not, see <https://www.gnu.org/licenses/>.
@startuml Anwendungskern

!pragma useNewPackage
skinparam classAttributeIconSize 0
skinparam componentStyle uml2

package mongoose {
  class Schema

  class "model()" as model
  hide model circle
}

package rezept.entity {
  class "validateRezept()" as validateRezept
  hide validateRezept circle

  class RezeptModel
  hide RezeptModel circle

  RezeptModel ..> Schema
  RezeptModel ..> model
  RezeptModel ..> validateRezept

  RezeptData ..> RezeptArt
  RezeptData ..> Koch

  enum RezeptArt {
    HAUPTMAHLZEIT
    SNACK
  }

  enum Koch {
    JOHANN_LAFER
    STEFFEN_HENSSLER
  }

  interface RezeptData <<entity>> {
    + _id?: string
    + __v?: number
    + createdAt?: number
    + updatedAt?: number
    + name: string
    + schwierigkeit?: number
    + art?: RezeptArt
    + koch: Koch
    + preis: number
    + schaerfe?: number
    + verfuegbar?: boolean
    + datum?: Date
    + hinweis: string
    + homepage?: string
    + zutaten?: Array<string>
    + gewuerze: any
  }
}

hide empty members

footer (c) Jürgen Zimmermann

@enduml
